# xmcd
#
# Track frame offsets: 
#        150
#        14243
#        27064
#        38672
#        49920
#        64132
#        78807
#        92435
#        105404
#        117942
#        130862
#        148991
#        161466
#        172299
#        186105
#
# Disc length: 2637 seconds
#
# Revision: 0
# Processed by: cddbd v1.5.2PL0 Copyright (c) Steve Scherf et al.
# Submitted via: ExactAudioCopy v0.99pb5
#
DISCID=c70a4b0f
DTITLE=Various Artist - Essential Blues II
DYEAR=2007
DGENRE=Blues
TTITLE0=Etta James/I Just Want To Make Love To You
TTITLE1=Big Mamma Thornton/Hound Dog
TTITLE2=Sonny Boy Williamson/Don't Start Me Talkin'
TTITLE3=Bo Diddley/Who Do You Love
TTITLE4=Billie Holiday/Billie's Blues
TTITLE5=John Mayall and The Blues Breakers/Hideaway
TTITLE6=Koko Taylor/Wang Dang Doodle
TTITLE7=Lightnin' Hopkins/I'm Wild About You Baby
TTITLE8=Sister Rosetta Tharpo With The Sammy Price Trio/Strange Things
TTITLE8=Happen Everyday
TTITLE9=Muddy Waters/Got My Mojo Working
TTITLE10=Sippie Wallace/Woman Be Wise
TTITLE11=Chuck Berry/Route 66
TTITLE12=Elmore James/Madison Blues
TTITLE13=Albert Collins/Frosty
TTITLE14=Bobby "Blue" Bland/Turn On Your Love Light
EXTD=
EXTT0=
EXTT1=
EXTT2=
EXTT3=
EXTT4=
EXTT5=
EXTT6=
EXTT7=
EXTT8=
EXTT9=
EXTT10=
EXTT11=
EXTT12=
EXTT13=
EXTT14=
PLAYORDER=
